<svg width="170" height="59" viewBox="0 0 170 59" fill="none" xmlns="http://www.w3.org/2000/svg">
<path d="M0.794167 40L13.7494 10.9337H20.3932L33.39 40H26.331L15.701 14.3386H18.3585L7.68704 40H0.794167ZM7.27181 33.7715L9.05731 28.6641H24.0057L25.8327 33.7715H7.27181ZM37.2361 40V10.9337H43.9629V40H37.2361ZM61.2418 40.4983C58.9165 40.4983 56.688 40.1938 54.5565 39.5848C52.425 38.9481 50.7087 38.1314 49.4076 37.1349L51.6914 32.069C52.9371 32.9549 54.4043 33.6885 56.0929 34.2698C57.8092 34.8234 59.5393 35.1002 61.2833 35.1002C62.612 35.1002 63.6778 34.9757 64.4806 34.7265C65.3111 34.4497 65.9201 34.076 66.3076 33.6054C66.6952 33.1348 66.889 32.595 66.889 31.986C66.889 31.2109 66.5844 30.6019 65.9754 30.159C65.3664 29.6884 64.5636 29.3147 63.5671 29.0378C62.5705 28.7333 61.4632 28.4565 60.2452 28.2074C59.0549 27.9305 57.8507 27.5984 56.6327 27.2108C55.4423 26.8233 54.3489 26.325 53.3523 25.716C52.3558 25.107 51.5392 24.3042 50.9025 23.3076C50.2935 22.3111 49.9889 21.0377 49.9889 19.4875C49.9889 17.8265 50.4319 16.3179 51.3177 14.9614C52.2312 13.5773 53.5876 12.4839 55.387 11.6811C57.214 10.8506 59.4978 10.4354 62.2383 10.4354C64.0654 10.4354 65.8647 10.6568 67.6364 11.0998C69.408 11.515 70.9721 12.1517 72.3285 13.0098L70.2523 18.1172C68.8959 17.3421 67.5395 16.7746 66.1831 16.4147C64.8266 16.0272 63.4979 15.8334 62.1968 15.8334C60.8957 15.8334 59.83 15.9857 58.9995 16.2902C58.169 16.5947 57.5739 16.9961 57.214 17.4943C56.8541 17.9649 56.6742 18.5186 56.6742 19.1553C56.6742 19.9027 56.9787 20.5117 57.5877 20.9823C58.1967 21.4252 58.9995 21.7851 59.9961 22.0619C60.9926 22.3387 62.0861 22.6156 63.2764 22.8924C64.4944 23.1692 65.6986 23.4876 66.889 23.8474C68.107 24.2073 69.2143 24.6917 70.2108 25.3007C71.2074 25.9097 72.0102 26.7125 72.6192 27.7091C73.2559 28.7057 73.5742 29.9652 73.5742 31.4877C73.5742 33.121 73.1175 34.6158 72.2039 35.9722C71.2904 37.3287 69.9202 38.4221 68.0931 39.2526C66.2938 40.083 64.01 40.4983 61.2418 40.4983ZM88.5515 40.4983C86.2262 40.4983 83.9978 40.1938 81.8662 39.5848C79.7347 38.9481 78.0184 38.1314 76.7173 37.1349L79.0011 32.069C80.2468 32.9549 81.714 33.6885 83.4026 34.2698C85.1189 34.8234 86.849 35.1002 88.593 35.1002C89.9217 35.1002 90.9875 34.9757 91.7903 34.7265C92.6208 34.4497 93.2298 34.076 93.6173 33.6054C94.0049 33.1348 94.1987 32.595 94.1987 31.986C94.1987 31.2109 93.8941 30.6019 93.2851 30.159C92.6761 29.6884 91.8733 29.3147 90.8768 29.0378C89.8802 28.7333 88.7729 28.4565 87.5549 28.2074C86.3646 27.9305 85.1604 27.5984 83.9424 27.2108C82.7521 26.8233 81.6586 26.325 80.662 25.716C79.6655 25.107 78.8489 24.3042 78.2122 23.3076C77.6032 22.3111 77.2987 21.0377 77.2987 19.4875C77.2987 17.8265 77.7416 16.3179 78.6274 14.9614C79.5409 13.5773 80.8973 12.4839 82.6967 11.6811C84.5237 10.8506 86.8075 10.4354 89.548 10.4354C91.3751 10.4354 93.1744 10.6568 94.9461 11.0998C96.7177 11.515 98.2818 12.1517 99.6382 13.0098L97.562 18.1172C96.2056 17.3421 94.8492 16.7746 93.4928 16.4147C92.1363 16.0272 90.8076 15.8334 89.5065 15.8334C88.2055 15.8334 87.1397 15.9857 86.3092 16.2902C85.4788 16.5947 84.8836 16.9961 84.5237 17.4943C84.1638 17.9649 83.9839 18.5186 83.9839 19.1553C83.9839 19.9027 84.2884 20.5117 84.8974 20.9823C85.5064 21.4252 86.3092 21.7851 87.3058 22.0619C88.3023 22.3387 89.3958 22.6156 90.5861 22.8924C91.8041 23.1692 93.0083 23.4876 94.1987 23.8474C95.4167 24.2073 96.524 24.6917 97.5205 25.3007C98.5171 25.9097 99.3199 26.7125 99.9289 27.7091C100.566 28.7057 100.884 29.9652 100.884 31.4877C100.884 33.121 100.427 34.6158 99.5136 35.9722C98.6001 37.3287 97.2299 38.4221 95.4028 39.2526C93.6035 40.083 91.3197 40.4983 88.5515 40.4983ZM106.311 40V10.9337H111.875L124.249 31.4462H121.301L133.467 10.9337H138.99L139.073 40H132.761L132.72 20.6086H133.882L124.166 36.9273H121.135L111.211 20.6086H112.622V40H106.311ZM156.35 40.4983C154.024 40.4983 151.796 40.1938 149.664 39.5848C147.533 38.9481 145.817 38.1314 144.516 37.1349L146.799 32.069C148.045 32.9549 149.512 33.6885 151.201 34.2698C152.917 34.8234 154.647 35.1002 156.391 35.1002C157.72 35.1002 158.786 34.9757 159.589 34.7265C160.419 34.4497 161.028 34.076 161.416 33.6054C161.803 33.1348 161.997 32.595 161.997 31.986C161.997 31.2109 161.692 30.6019 161.083 30.159C160.474 29.6884 159.672 29.3147 158.675 29.0378C157.678 28.7333 156.571 28.4565 155.353 28.2074C154.163 27.9305 152.959 27.5984 151.741 27.2108C150.55 26.8233 149.457 26.325 148.46 25.716C147.464 25.107 146.647 24.3042 146.01 23.3076C145.401 22.3111 145.097 21.0377 145.097 19.4875C145.097 17.8265 145.54 16.3179 146.426 14.9614C147.339 13.5773 148.696 12.4839 150.495 11.6811C152.322 10.8506 154.606 10.4354 157.346 10.4354C159.173 10.4354 160.973 10.6568 162.744 11.0998C164.516 11.515 166.08 12.1517 167.436 13.0098L165.36 18.1172C164.004 17.3421 162.647 16.7746 161.291 16.4147C159.935 16.0272 158.606 15.8334 157.305 15.8334C156.004 15.8334 154.938 15.9857 154.107 16.2902C153.277 16.5947 152.682 16.9961 152.322 17.4943C151.962 17.9649 151.782 18.5186 151.782 19.1553C151.782 19.9027 152.087 20.5117 152.696 20.9823C153.305 21.4252 154.107 21.7851 155.104 22.0619C156.101 22.3387 157.194 22.6156 158.384 22.8924C159.602 23.1692 160.807 23.4876 161.997 23.8474C163.215 24.2073 164.322 24.6917 165.319 25.3007C166.315 25.9097 167.118 26.7125 167.727 27.7091C168.364 28.7057 168.682 29.9652 168.682 31.4877C168.682 33.121 168.225 34.6158 167.312 35.9722C166.398 37.3287 165.028 38.4221 163.201 39.2526C161.402 40.083 159.118 40.4983 156.35 40.4983Z" fill="url(#paint0_linear_11_19)"/>
<path d="M19.1199 56.5859C18.5884 56.5859 18.0968 56.4995 17.645 56.3268C17.1999 56.1474 16.8112 55.8982 16.4791 55.5793C16.1535 55.2538 15.8977 54.8751 15.7117 54.4433C15.5257 54.0114 15.4327 53.5364 15.4327 53.0182C15.4327 52.5 15.5257 52.0249 15.7117 51.5931C15.8977 51.1612 16.1568 50.7859 16.489 50.467C16.8212 50.1414 17.2099 49.8923 17.655 49.7196C18.1068 49.5402 18.5984 49.4505 19.1299 49.4505C19.668 49.4505 20.163 49.5435 20.6148 49.7295C21.0732 49.9089 21.4619 50.178 21.7808 50.5367L21.133 51.1646C20.8672 50.8855 20.5683 50.6796 20.2361 50.5467C19.9039 50.4072 19.5485 50.3374 19.1698 50.3374C18.7778 50.3374 18.4124 50.4039 18.0735 50.5367C17.7414 50.6696 17.4524 50.8556 17.2065 51.0948C16.9607 51.334 16.7681 51.6197 16.6285 51.9519C16.4957 52.2774 16.4292 52.6328 16.4292 53.0182C16.4292 53.4035 16.4957 53.7623 16.6285 54.0945C16.7681 54.42 16.9607 54.7024 17.2065 54.9415C17.4524 55.1807 17.7414 55.3667 18.0735 55.4996C18.4124 55.6325 18.7778 55.6989 19.1698 55.6989C19.5485 55.6989 19.9039 55.6325 20.2361 55.4996C20.5683 55.3601 20.8672 55.1475 21.133 54.8618L21.7808 55.4896C21.4619 55.8484 21.0732 56.1208 20.6148 56.3068C20.163 56.4928 19.6647 56.5859 19.1199 56.5859ZM26.2056 56.5859C25.6741 56.5859 25.1791 56.4962 24.7207 56.3168C24.2689 56.1374 23.8769 55.8883 23.5447 55.5694C23.2126 55.2438 22.9534 54.8651 22.7674 54.4333C22.5814 54.0014 22.4884 53.5297 22.4884 53.0182C22.4884 52.5066 22.5814 52.0349 22.7674 51.6031C22.9534 51.1712 23.2126 50.7958 23.5447 50.4769C23.8769 50.1514 24.2689 49.8989 24.7207 49.7196C25.1725 49.5402 25.6674 49.4505 26.2056 49.4505C26.7371 49.4505 27.2254 49.5402 27.6705 49.7196C28.1223 49.8923 28.5143 50.1414 28.8464 50.467C29.1853 50.7859 29.4444 51.1612 29.6238 51.5931C29.8098 52.0249 29.9028 52.5 29.9028 53.0182C29.9028 53.5364 29.8098 54.0114 29.6238 54.4433C29.4444 54.8751 29.1853 55.2538 28.8464 55.5793C28.5143 55.8982 28.1223 56.1474 27.6705 56.3268C27.2254 56.4995 26.7371 56.5859 26.2056 56.5859ZM26.2056 55.6989C26.5909 55.6989 26.9463 55.6325 27.2719 55.4996C27.6041 55.3667 27.8897 55.1807 28.1289 54.9415C28.3747 54.6957 28.5641 54.41 28.697 54.0845C28.8365 53.7589 28.9062 53.4035 28.9062 53.0182C28.9062 52.6328 28.8365 52.2774 28.697 51.9519C28.5641 51.6263 28.3747 51.344 28.1289 51.1048C27.8897 50.859 27.6041 50.6696 27.2719 50.5367C26.9463 50.4039 26.5909 50.3374 26.2056 50.3374C25.8136 50.3374 25.4515 50.4039 25.1193 50.5367C24.7938 50.6696 24.5081 50.859 24.2623 51.1048C24.0164 51.344 23.8238 51.6263 23.6843 51.9519C23.5514 52.2774 23.4849 52.6328 23.4849 53.0182C23.4849 53.4035 23.5514 53.7589 23.6843 54.0845C23.8238 54.41 24.0164 54.6957 24.2623 54.9415C24.5081 55.1807 24.7938 55.3667 25.1193 55.4996C25.4515 55.6325 25.8136 55.6989 26.2056 55.6989ZM31.426 56.5061V49.5302H32.4225V55.6391H36.1995V56.5061H31.426ZM37.3431 56.5061V49.5302H38.3396V55.6391H42.1166V56.5061H37.3431ZM44.167 52.5398H47.7546V53.3869H44.167V52.5398ZM44.2567 55.6391H48.3227V56.5061H43.2601V49.5302H48.1831V50.3972H44.2567V55.6391ZM53.0757 56.5859C52.5376 56.5859 52.0426 56.4995 51.5908 56.3268C51.1391 56.1474 50.7471 55.8982 50.4149 55.5793C50.0827 55.2538 49.8236 54.8751 49.6376 54.4433C49.4515 54.0114 49.3585 53.5364 49.3585 53.0182C49.3585 52.5 49.4515 52.0249 49.6376 51.5931C49.8236 51.1612 50.0827 50.7859 50.4149 50.467C50.7537 50.1414 51.149 49.8923 51.6008 49.7196C52.0526 49.5402 52.5508 49.4505 53.0956 49.4505C53.6471 49.4505 54.152 49.5402 54.6104 49.7196C55.0688 49.8989 55.4575 50.168 55.7764 50.5268L55.1585 51.1446C54.8728 50.8656 54.5606 50.663 54.2217 50.5367C53.8896 50.4039 53.5275 50.3374 53.1355 50.3374C52.7369 50.3374 52.3648 50.4039 52.0193 50.5367C51.6805 50.6696 51.3849 50.8556 51.1324 51.0948C50.8866 51.334 50.6939 51.6197 50.5544 51.9519C50.4215 52.2774 50.3551 52.6328 50.3551 53.0182C50.3551 53.3969 50.4215 53.7523 50.5544 54.0845C50.6939 54.41 50.8866 54.6957 51.1324 54.9415C51.3849 55.1807 51.6805 55.3667 52.0193 55.4996C52.3582 55.6325 52.7269 55.6989 53.1255 55.6989C53.4976 55.6989 53.853 55.6424 54.1919 55.5295C54.5373 55.4099 54.8562 55.2139 55.1485 54.9415L55.7166 55.6989C55.3711 55.9912 54.9658 56.2138 54.5008 56.3666C54.0424 56.5128 53.5673 56.5859 53.0757 56.5859ZM54.7599 55.5694V52.9783H55.7166V55.6989L54.7599 55.5694ZM58.5315 52.5398H62.1191V53.3869H58.5315V52.5398ZM58.6212 55.6391H62.6871V56.5061H57.6246V49.5302H62.5476V50.3972H58.6212V55.6391ZM70.1262 56.5859C69.5947 56.5859 69.0998 56.4962 68.6413 56.3168C68.1896 56.1374 67.7976 55.8883 67.4654 55.5694C67.1332 55.2438 66.8741 54.8651 66.6881 54.4333C66.5021 54.0014 66.4091 53.5297 66.4091 53.0182C66.4091 52.5066 66.5021 52.0349 66.6881 51.6031C66.8741 51.1712 67.1332 50.7958 67.4654 50.4769C67.7976 50.1514 68.1896 49.8989 68.6413 49.7196C69.0931 49.5402 69.5881 49.4505 70.1262 49.4505C70.6577 49.4505 71.146 49.5402 71.5912 49.7196C72.0429 49.8923 72.4349 50.1414 72.7671 50.467C73.1059 50.7859 73.365 51.1612 73.5444 51.5931C73.7305 52.0249 73.8235 52.5 73.8235 53.0182C73.8235 53.5364 73.7305 54.0114 73.5444 54.4433C73.365 54.8751 73.1059 55.2538 72.7671 55.5793C72.4349 55.8982 72.0429 56.1474 71.5912 56.3268C71.146 56.4995 70.6577 56.5859 70.1262 56.5859ZM70.1262 55.6989C70.5116 55.6989 70.867 55.6325 71.1925 55.4996C71.5247 55.3667 71.8104 55.1807 72.0496 54.9415C72.2954 54.6957 72.4848 54.41 72.6176 54.0845C72.7571 53.7589 72.8269 53.4035 72.8269 53.0182C72.8269 52.6328 72.7571 52.2774 72.6176 51.9519C72.4848 51.6263 72.2954 51.344 72.0496 51.1048C71.8104 50.859 71.5247 50.6696 71.1925 50.5367C70.867 50.4039 70.5116 50.3374 70.1262 50.3374C69.7342 50.3374 69.3722 50.4039 69.04 50.5367C68.7144 50.6696 68.4288 50.859 68.1829 51.1048C67.9371 51.344 67.7444 51.6263 67.6049 51.9519C67.4721 52.2774 67.4056 52.6328 67.4056 53.0182C67.4056 53.4035 67.4721 53.7589 67.6049 54.0845C67.7444 54.41 67.9371 54.6957 68.1829 54.9415C68.4288 55.1807 68.7144 55.3667 69.04 55.4996C69.3722 55.6325 69.7342 55.6989 70.1262 55.6989ZM76.2435 52.8288H79.8411V53.6859H76.2435V52.8288ZM76.3432 56.5061H75.3466V49.5302H80.2697V50.3972H76.3432V56.5061ZM85.2556 52.5398H88.8433V53.3869H85.2556V52.5398ZM85.3453 55.6391H89.4113V56.5061H84.3488V49.5302H89.2718V50.3972H85.3453V55.6391ZM91.0249 56.5061V49.5302H91.8421L96.4562 55.2604H96.0277V49.5302H97.0242V56.5061H96.2071L91.593 50.7759H92.0215V56.5061H91.0249ZM102.261 56.5859C101.723 56.5859 101.228 56.4995 100.777 56.3268C100.325 56.1474 99.9328 55.8982 99.6006 55.5793C99.2684 55.2538 99.0093 54.8751 98.8233 54.4433C98.6372 54.0114 98.5442 53.5364 98.5442 53.0182C98.5442 52.5 98.6372 52.0249 98.8233 51.5931C99.0093 51.1612 99.2684 50.7859 99.6006 50.467C99.9394 50.1414 100.335 49.8923 100.786 49.7196C101.238 49.5402 101.737 49.4505 102.281 49.4505C102.833 49.4505 103.338 49.5402 103.796 49.7196C104.255 49.8989 104.643 50.168 104.962 50.5268L104.344 51.1446C104.059 50.8656 103.746 50.663 103.407 50.5367C103.075 50.4039 102.713 50.3374 102.321 50.3374C101.923 50.3374 101.551 50.4039 101.205 50.5367C100.866 50.6696 100.571 50.8556 100.318 51.0948C100.072 51.334 99.8796 51.6197 99.7401 51.9519C99.6072 52.2774 99.5408 52.6328 99.5408 53.0182C99.5408 53.3969 99.6072 53.7523 99.7401 54.0845C99.8796 54.41 100.072 54.6957 100.318 54.9415C100.571 55.1807 100.866 55.3667 101.205 55.4996C101.544 55.6325 101.913 55.6989 102.311 55.6989C102.683 55.6989 103.039 55.6424 103.378 55.5295C103.723 55.4099 104.042 55.2139 104.334 54.9415L104.902 55.6989C104.557 55.9912 104.152 56.2138 103.686 56.3666C103.228 56.5128 102.753 56.5859 102.261 56.5859ZM103.946 55.5694V52.9783H104.902V55.6989L103.946 55.5694ZM106.81 56.5061V49.5302H107.807V56.5061H106.81ZM109.895 56.5061V49.5302H110.713L115.327 55.2604H114.898V49.5302H115.895V56.5061H115.077L110.463 50.7759H110.892V56.5061H109.895ZM118.89 52.5398H122.477V53.3869H118.89V52.5398ZM118.979 55.6391H123.045V56.5061H117.983V49.5302H122.906V50.3972H118.979V55.6391ZM125.566 52.5398H129.153V53.3869H125.566V52.5398ZM125.655 55.6391H129.721V56.5061H124.659V49.5302H129.582V50.3972H125.655V55.6391ZM131.335 56.5061V49.5302H134.056C134.667 49.5302 135.188 49.6265 135.62 49.8192C136.052 50.0119 136.384 50.2909 136.617 50.6563C136.849 51.0217 136.966 51.4569 136.966 51.9618C136.966 52.4667 136.849 52.9019 136.617 53.2673C136.384 53.6261 136.052 53.9018 135.62 54.0945C135.188 54.2871 134.667 54.3835 134.056 54.3835H131.883L132.332 53.925V56.5061H131.335ZM135.999 56.5061L134.225 53.9749H135.291L137.085 56.5061H135.999ZM132.332 54.0247L131.883 53.5364H134.026C134.664 53.5364 135.145 53.4002 135.471 53.1278C135.803 52.8488 135.969 52.4601 135.969 51.9618C135.969 51.4635 135.803 51.0782 135.471 50.8058C135.145 50.5334 134.664 50.3972 134.026 50.3972H131.883L132.332 49.8989V54.0247ZM138.576 56.5061V49.5302H139.572V56.5061H138.576ZM141.661 56.5061V49.5302H142.478L147.092 55.2604H146.663V49.5302H147.66V56.5061H146.843L142.229 50.7759H142.657V56.5061H141.661ZM152.897 56.5859C152.359 56.5859 151.864 56.4995 151.412 56.3268C150.961 56.1474 150.569 55.8982 150.236 55.5793C149.904 55.2538 149.645 54.8751 149.459 54.4433C149.273 54.0114 149.18 53.5364 149.18 53.0182C149.18 52.5 149.273 52.0249 149.459 51.5931C149.645 51.1612 149.904 50.7859 150.236 50.467C150.575 50.1414 150.97 49.8923 151.422 49.7196C151.874 49.5402 152.372 49.4505 152.917 49.4505C153.469 49.4505 153.973 49.5402 154.432 49.7196C154.89 49.8989 155.279 50.168 155.598 50.5268L154.98 51.1446C154.694 50.8656 154.382 50.663 154.043 50.5367C153.711 50.4039 153.349 50.3374 152.957 50.3374C152.558 50.3374 152.186 50.4039 151.841 50.5367C151.502 50.6696 151.206 50.8556 150.954 51.0948C150.708 51.334 150.515 51.6197 150.376 51.9519C150.243 52.2774 150.177 52.6328 150.177 53.0182C150.177 53.3969 150.243 53.7523 150.376 54.0845C150.515 54.41 150.708 54.6957 150.954 54.9415C151.206 55.1807 151.502 55.3667 151.841 55.4996C152.18 55.6325 152.548 55.6989 152.947 55.6989C153.319 55.6989 153.674 55.6424 154.013 55.5295C154.359 55.4099 154.678 55.2139 154.97 54.9415L155.538 55.6989C155.193 55.9912 154.787 56.2138 154.322 56.3666C153.864 56.5128 153.389 56.5859 152.897 56.5859ZM154.581 55.5694V52.9783H155.538V55.6989L154.581 55.5694Z" fill="#2455A7"/>
<defs>
<linearGradient id="paint0_linear_11_19" x1="1" y1="25.5" x2="170" y2="25.5" gradientUnits="userSpaceOnUse">
<stop stop-color="#AE2222"/>
<stop offset="1" stop-color="#7F1919"/>
</linearGradient>
</defs>
</svg>
